<?xml version="1.0" encoding="UTF-8" standalone="no"?>
<!-- Created with Inkscape (http://www.inkscape.org/) -->

<svg
   width="210mm"
   height="297mm"
   viewBox="0 0 210 297"
   version="1.1"
   id="svg5"
   xml:space="preserve"
   inkscape:version="1.2 (dc2aedaf03, 2022-05-15)"
   sodipodi:docname="antarctic.svg"
   xmlns:inkscape="http://www.inkscape.org/namespaces/inkscape"
   xmlns:sodipodi="http://sodipodi.sourceforge.net/DTD/sodipodi-0.dtd"
   xmlns="http://www.w3.org/2000/svg"
   xmlns:svg="http://www.w3.org/2000/svg"><sodipodi:namedview
     id="namedview7"
     pagecolor="#ffffff"
     bordercolor="#666666"
     borderopacity="1.0"
     inkscape:showpageshadow="2"
     inkscape:pageopacity="0.0"
     inkscape:pagecheckerboard="0"
     inkscape:deskcolor="#d1d1d1"
     inkscape:document-units="mm"
     showgrid="false"
     inkscape:zoom="0.84096521"
     inkscape:cx="390.62258"
     inkscape:cy="351.97651"
     inkscape:window-width="1920"
     inkscape:window-height="1017"
     inkscape:window-x="-8"
     inkscape:window-y="-8"
     inkscape:window-maximized="1"
     inkscape:current-layer="layer1" /><defs
     id="defs2" /><g
     inkscape:label="Слой 1"
     inkscape:groupmode="layer"
     id="layer1"><path
       d="m 151.44728,92.6377 c 0.004,32.92475 -26.68587,59.61697 -59.610624,59.61697 -32.924221,0 -59.6138,-26.69248 -59.61036,-59.61697 -0.0034,-32.924749 26.685875,-59.616974 59.610624,-59.616974 32.92475,0 59.61406,26.692489 59.61062,59.616974 z"
       style="fill:#ffffff;fill-opacity:1;fill-rule:nonzero;stroke-width:1.05833;stroke-linecap:butt;stroke-miterlimit:2;stroke-dasharray:none;stroke-opacity:1"
       id="path136" /><path
       d="m 151.59421,92.637628 a 59.610731,59.610841 0 1 1 -119.221016,0 59.610731,59.610841 0 1 1 119.221016,0 z"
       style="fill:#021e9b;fill-opacity:1;stroke:none;stroke-width:0.460289"
       id="path138" /><path
       d="m 96.787539,59.086682 -0.232569,-0.09948 z m 6.641831,65.710068 -0.89667,-0.53102 -2.65668,0.66384 -2.324629,-1.4605 v 0.56435 l -0.564621,-0.76332 0.664104,-0.66358 -0.09948,-1.99125 h 0.763852 l 0.464873,-1.32741 0.531283,-0.23231 -0.4318,-0.6641 0.664104,-0.23204 -0.09948,-0.99563 -0.664104,-0.33179 0.863335,-0.0997 -0.531283,-2.42253 -1.328208,-1.32741 -0.79719,0.33178 0.332052,1.09538 h -2.756429 l -2.324629,-0.99589 -0.896938,-0.43127 -4.416689,-0.99563 -0.332052,0.53102 -1.561042,0.13255 h -0.431535 l -0.664104,1.09538 -1.893094,-1.32768 -0.996156,0.33205 0.13282,0.89588 -2.457714,-1.32741 -0.09948,0.8628 -2.424377,-1.09511 -0.132821,0.0995 -1.195652,0.4646 -0.232305,-0.89588 -2.889249,-1.42716 -3.088482,-0.99562 -0.564621,-2.55535 v -0.56409 l -1.195652,-2.19049 0.531284,-2.65483 -0.996156,-0.33178 -0.332053,-1.128452 1.660525,-0.199231 h -0.763852 l 0.09948,-1.659202 -2.424377,0.763323 -0.09948,-0.66384 -0.332052,1.227931 -1.328473,0.531019 -0.896673,-0.862806 -0.332052,-0.896144 -0.332052,-1.75895 0.763852,-0.564092 0.332052,0.431271 0.232305,-0.530754 -0.564357,-3.982508 0.896673,0.198966 0.431536,-4.181474 0.13282,-0.132821 0.8636,-0.530754 -1.095904,0.09948 -0.4318,-0.995627 1.992577,-2.223559 -1.793345,-0.331787 -1.328209,1.327415 -0.531548,-1.526646 -0.796925,1.095375 -0.199231,-0.763323 -0.996421,0.331787 -0.664104,0.331788 0.531283,-1.991254 -0.4318,-0.232304 0.232569,-0.564092 -0.564621,0.132821 -0.09948,-1.128448 h 2.09206 l -0.09948,-0.531019 h -0.664104 l -1.22899,-2.12381 -0.664104,0.232304 -0.4318,-0.763323 -0.232569,0.663575 -0.664104,-0.464608 0.664104,-0.431271 -0.996156,-0.332052 0.232569,-0.564092 -0.79719,-0.431271 -0.199231,-1.75895 -0.796925,-0.232304 0.464873,-0.332052 -0.896937,-2.323042 0.09975,-0.763323 0.332317,-2.323041 h 0.664104 l -0.199231,1.427162 1.660525,2.323042 1.195388,1.559719 2.457714,0.663839 v 0.09948 l 0.332052,-0.564092 1.328208,1.559719 0.664105,0.763323 0.332316,0.331787 3.752586,1.792023 0.664104,0.332052 0.232833,0.198967 1.760008,2.124075 0.996157,-0.464609 7.306204,-1.659466 0.232569,-1.327415 0.531283,0.232304 -0.09948,-0.431271 0.332052,-0.232568 1.560777,-0.564092 v -1.526646 l 0.531283,-0.564091 0.664104,-2.555346 -0.332052,-0.995627 1.561042,-3.750204 v -2.323042 h 0.763852 l 0.896673,-1.327415 1.095904,-0.332052 0.132821,-1.227666 1.527704,-1.858698 0.664104,0.332052 3.121819,-1.128448 0.332052,-0.331788 0.664104,-0.663839 -0.232569,-1.095375 h 0.664104 l 0.332317,1.759214 3.420533,0.796396 0.564621,-0.564091 0.232569,0.09948 2.988733,0.663839 0.09975,-0.09975 1.561037,-0.89588 0.0995,0.995627 1.3282,0.132557 1.09591,0.863071 0.23257,0.232304 1.66052,1.426898 1.99231,0.13282 1.22899,0.198967 1.52771,-0.531019 0.13282,0.995627 0.6641,0.431536 0.53129,-0.995627 h 0.6641 l 0.46514,2.555346 0.53128,0.09975 -0.0995,0.89588 -0.0998,0.09948 h 0.19923 l 1.32847,-0.663575 1.22873,-0.431271 3.42053,1.194594 0.66411,-0.199231 0.23283,1.194858 0.89641,0.132556 -0.23231,-0.564091 h 0.76386 l 0.2323,1.227931 0.89694,-0.995627 2.09206,1.327414 0.56462,2.42279 -0.89694,0.232304 0.23283,1.858433 0.33179,0.564092 2.3249,5.874279 -1.22873,1.09511 -0.0998,1.327415 -0.99642,1.227931 1.09617,0.763323 -0.4318,0.331788 0.99616,0.995627 1.5277,0.232304 0.46487,0.663839 0.4318,0.862542 1.09591,0.464873 1.32821,-0.896144 0.89693,0.09975 -1.0959,1.559719 1.0959,2.887133 -1.3282,1.095375 0.56435,1.758686 -0.33205,1.559983 0.6641,0.895879 1.76001,0.332052 -1.76001,2.422525 0.33206,0.431271 0.4318,0.464875 -0.76386,1.19459 0.76386,0.46461 -3.88567,3.18611 0.89693,2.2233 -0.23283,1.32768 -1.32821,0.43127 -0.33205,1.12844 -1.52771,0.66384 -0.46487,1.4269 -0.33205,0.76333 1.56104,0.79639 -2.32489,0.19923 0.56462,1.22767 -1.12924,1.09537 -1.76001,0.33179 -0.56462,0.99563 1.32821,0.66384 -2.52386,2.32304 0.76385,1.22793 -1.99231,-0.43127 -2.22515,1.32741 -2.989,1.4269 -0.6641,0.99563 -0.4318,-0.33179 0.4318,-0.99562 -1.99284,0.76332 -0.43154,-0.76332 -2.989,1.75895 -1.32821,-0.43128 -2.42437,0.43128 -0.66411,-0.33206 m 0.0995,-64.150078 -0.23257,-0.232304 h -0.0995 v 0.132556 h 0.23231 z m -0.76386,63.818298 0.66411,0.33205 z m 0,0 0.66411,0.33205 M 56.802912,79.13178 56.935733,78.335384 55.707008,77.571796 Z m -2.656946,-6.106584 h -0.664104 l 0.332052,0.995627 0.332052,-0.862806 z m -0.332052,-0.995627 -0.332052,0.332052 0.664104,0.464609 -0.332052,-0.796396 z m 2.988998,7.102211 0.132821,-0.796396 -1.228725,-0.763588 z m -2.656946,-6.106584 h -0.664104 l 0.332052,0.995627 0.332052,-0.862806 z m -0.332052,-0.995627 -0.332052,0.332052 0.664104,0.464609 -0.332052,-0.796396 z m 2.988998,7.102211 0.132821,-0.796396 -1.228725,-0.763588 z m -2.656946,-6.106584 h -0.664104 l 0.332052,0.995627 0.332052,-0.862806 z m -0.332052,-0.995627 -0.332052,0.332052 0.664104,0.464609 -0.332052,-0.796396 z m 1.992577,-2.323041 v -0.862807 l -0.763852,0.199232 0.09975,0.564091 z m -0.863335,-2.422525 0.199231,0.43127 0.464873,-0.995627 -0.664104,0.464609 z m 0.863335,2.422525 v -0.862807 l -0.763852,0.199232 0.09975,0.564091 z m -0.863335,-2.422525 0.199231,0.43127 0.464873,-0.995627 -0.664104,0.464609 z m 0.863335,2.422525 v -0.862807 l -0.763852,0.199232 0.09975,0.564091 z m -0.863335,-2.422525 0.199231,0.43127 0.464873,-0.995627 -0.664104,0.464609 z m 11.822642,33.850787 -0.763852,0.0995 -0.664105,0.89588 1.095905,-0.23231 0.332052,-0.76332 z m 0,0 -0.763852,0.0995 -0.664105,0.89588 1.095905,-0.23231 0.332052,-0.76332 z m 0,0 -0.763852,0.0995 -0.664105,0.89588 1.095905,-0.23231 0.332052,-0.76332 z M 67.562987,78.667171 67.330154,78.46794 66.66605,78.136152 67.330154,78.46794 Z"
       style="fill:#ffffff;stroke-width:0.264583"
       id="path140" /><path
       d="m 92.174264,33.08158 a 59.610624,59.610624 0 0 0 -0.380471,0.0082 v 9.822656 c -8.921221,0.03307 -17.279408,2.418821 -24.507031,6.565107 l -4.902994,-8.491538 a 59.610624,59.610624 0 0 0 -0.330729,0.190236 l 4.902994,8.491537 A 49.955185,49.955185 0 0 0 49.014108,67.609705 l -8.507941,-4.911196 a 59.610624,59.610624 0 0 0 -0.198438,0.322527 l 8.516144,4.919398 c -4.146021,7.227623 -6.532033,15.58581 -6.565106,24.507031 h -9.880071 a 59.610624,59.610624 0 0 0 -0.0082,0.190235 59.610624,59.610624 0 0 0 0.0079,0.190236 h 9.8806 c 0.03307,8.921224 2.418821,17.279404 6.565106,24.507034 l -8.516408,4.91966 a 59.610624,59.610624 0 0 0 0.173831,0.33073 l 8.532813,-4.91966 a 49.955185,49.955185 0 0 0 17.941925,17.94192 l -4.936332,8.54975 a 59.610624,59.610624 0 0 0 0.338932,0.17356 l 4.927864,-8.53281 c 7.227623,4.14602 15.58581,6.53203 24.507031,6.56511 v 9.83085 a 59.610624,59.610624 0 0 0 0.380471,-0.008 v -9.82265 c 8.921211,-0.0331 17.279401,-2.41882 24.507021,-6.56511 l 4.903,8.49154 a 59.610624,59.610624 0 0 0 0.33073,-0.19024 l -4.903,-8.49153 a 49.955185,49.955185 0 0 0 17.94193,-17.94193 l 8.5082,4.9112 a 59.610624,59.610624 0 0 0 0.19844,-0.32227 l -8.51641,-4.91966 c 4.14603,-7.22762 6.53204,-15.58581 6.56511,-24.50703 h 9.88034 a 59.610624,59.610624 0 0 0 0.008,-0.190235 59.610624,59.610624 0 0 0 -0.008,-0.190236 h -9.88034 c -0.0331,-8.92122 -2.41882,-17.279408 -6.56511,-24.507031 l 8.51641,-4.919662 a 59.610624,59.610624 0 0 0 -0.17383,-0.330729 l -8.53281,4.919662 A 49.955185,49.955185 0 0 0 117.01202,49.668045 l 4.93607,-8.549482 a 59.610624,59.610624 0 0 0 -0.33893,-0.173566 l -4.92787,8.532812 c -7.22762,-4.146021 -15.58581,-6.532033 -24.507026,-6.565106 v -9.830858 z m -0.380471,10.203127 v 14.717448 c -6.173258,0.03254 -11.957843,1.676929 -16.966406,4.539191 L 67.468795,49.791605 c 7.169944,-4.109508 15.475479,-6.47409 24.324998,-6.506898 z m 0.380471,0 c 8.849786,0.03281 17.155056,2.39739 24.324996,6.507162 l -7.35859,12.749477 C 104.13211,59.679084 98.347522,58.034699 92.174264,58.002155 Z m -25.027996,6.7056 7.358857,12.749477 A 34.826045,34.826045 0 0 0 62.086112,75.158796 L 49.336371,67.79994 A 49.541906,49.541906 0 0 1 67.146268,49.990042 Z m 49.675522,0 a 49.541641,49.541641 0 0 1 17.8099,17.809633 l -12.74975,7.358856 A 34.826045,34.826045 0 0 0 109.46293,62.739784 l 7.35886,-12.749742 z m -25.027997,8.383852 v 15.643489 a 18.52295,18.52295 0 0 0 -8.954558,2.397919 L 75.017622,62.863609 c 4.953794,-2.829983 10.669059,-4.456906 16.776171,-4.48945 z m 0.380471,0 c 6.107112,0.03254 11.822376,1.659467 16.776166,4.489715 l -7.82187,13.551693 a 18.523214,18.523214 0 0 0 -8.954296,-2.397919 z m -17.487371,4.67995 7.821877,13.559896 a 18.643071,18.643071 0 0 0 -6.548437,6.548437 L 62.400437,75.340565 A 34.421497,34.421497 0 0 1 74.686893,63.053844 Z m 34.594267,0 a 34.421497,34.421497 0 0 1 12.28672,12.286456 l -13.55989,7.821877 a 18.643071,18.643071 0 0 0 -6.54844,-6.548437 z m -60.143227,5.068358 12.749742,7.358592 c -2.862263,5.008562 -4.506648,10.793148 -4.539192,16.966406 H 42.631035 c 0.03281,-8.849783 2.39739,-17.155054 6.507163,-24.324998 z m 85.691927,0 c 4.10977,7.169944 6.47435,15.475479 6.50716,24.324998 h -14.71745 c -0.0325,-6.173258 -1.67693,-11.957844 -4.53919,-16.966406 l 12.74974,-7.358592 z M 91.793793,74.389388 V 91.942904 L 83.021268,76.737565 c 2.597944,-1.467908 5.582708,-2.316162 8.772525,-2.348177 z m 0.380471,0 c 3.190081,0.03175 6.174581,0.880269 8.772526,2.348177 L 92.174264,91.942904 Z M 62.210202,75.67103 75.761895,83.492907 A 18.52295,18.52295 0 0 0 73.363977,92.4472 h -15.64349 c 0.03254,-6.107112 1.659467,-11.822377 4.489715,-16.77617 z m 59.547658,0 c 2.83024,4.953793 4.45717,10.669058 4.48971,16.77617 h -15.64349 a 18.52295,18.52295 0 0 0 -2.39792,-8.954558 L 121.75812,75.67103 Z M 82.698741,76.9278 91.471266,92.124938 76.274393,83.352148 A 18.349912,18.349912 0 0 1 82.698741,76.9278 Z m 18.570579,0 a 18.349648,18.349648 0 0 1 6.42434,6.424348 L 92.496526,92.124673 Z M 76.084158,83.674675 91.289497,92.4472 H 73.735981 c 0.03175,-3.190081 0.880269,-6.174581 2.348177,-8.772525 z m 31.799742,0 c 1.46791,2.597944 2.31616,5.582709 2.34818,8.772525 H 92.67856 Z m -65.252865,9.152996 h 14.717448 c 0.03254,6.173258 1.676929,11.957839 4.539192,16.966409 l -12.749742,7.35859 c -4.109508,-7.16995 -6.474089,-15.47548 -6.506898,-24.324999 z m 15.089452,0 h 15.64349 a 18.52295,18.52295 0 0 0 2.397918,8.954559 l -13.551958,7.82161 c -2.829983,-4.95379 -4.456906,-10.669057 -4.48945,-16.776169 z m 16.015494,0 H 91.289497 L 76.084158,101.6002 C 74.61625,99.002252 73.767995,96.017488 73.735981,92.827671 Z m 18.942579,0 h 17.55352 c -0.0318,3.190081 -0.88027,6.174581 -2.34818,8.772529 z m 17.92552,0 h 15.64349 c -0.0325,6.107112 -1.65947,11.822379 -4.48971,16.776169 l -13.5517,-7.82188 a 18.523214,18.523214 0 0 0 2.39792,-8.954289 z m 16.01549,0 h 14.71745 c -0.0328,8.849779 -2.39739,17.155049 -6.5069,24.324999 l -12.74974,-7.35859 c 2.86226,-5.00857 4.50665,-10.793151 4.53919,-16.966409 z m -35.148304,0.322527 -8.772525,15.196872 a 18.349648,18.349648 0 0 1 -6.424348,-6.42435 l 15.197138,-8.772522 z m 1.02526,0 15.197134,8.772522 a 18.349648,18.349648 0 0 1 -6.42434,6.42435 L 92.496791,93.149934 Z m -0.702733,0.181769 v 17.553513 c -3.190081,-0.0318 -6.174581,-0.88027 -8.772525,-2.34817 z m 0.380471,0 8.772526,15.205343 c -2.597945,1.4679 -5.582709,2.31616 -8.772526,2.34817 z m -16.213931,8.780993 a 18.643071,18.643071 0 0 0 6.548437,6.54844 l -7.821877,13.55989 a 34.421497,34.421497 0 0 1 -12.28672,-12.28672 l 13.559895,-7.82188 z m 32.047657,0 13.55989,7.82161 a 34.421497,34.421497 0 0 1 -12.28672,12.28672 l -7.82187,-13.55989 a 18.643071,18.643071 0 0 0 6.54843,-6.54844 z m -25.168491,6.74687 a 18.523214,18.523214 0 0 0 8.954294,2.39766 v 15.64375 c -6.107112,-0.0325 -11.822377,-1.65947 -16.776171,-4.48971 z m 18.289321,0 7.82161,13.55143 c -4.95379,2.83025 -10.669054,4.45717 -16.776166,4.48972 v -15.64349 a 18.52295,18.52295 0 0 0 8.954556,-2.39792 z m -39.042708,1.25704 a 34.826045,34.826045 0 0 0 12.419013,12.41875 l -7.358857,12.74974 a 49.541641,49.541641 0 0 1 -17.809897,-17.8099 l 12.749741,-7.35886 z m 59.795828,0 12.74975,7.35859 a 49.541641,49.541641 0 0 1 -17.8099,17.8099 l -7.35886,-12.74974 a 34.826045,34.826045 0 0 0 12.41901,-12.41902 z m -47.054553,12.61718 c 5.008563,2.86227 10.793148,4.50665 16.966406,4.5392 v 14.71744 C 82.94401,141.95789 74.638739,139.5933 67.468795,135.4838 Z m 34.313283,0 7.35859,12.74975 c -7.16994,4.1095 -15.47548,6.47409 -24.324996,6.50689 v -14.71744 c 6.173258,-0.0326 11.957846,-1.67693 16.966406,-4.5392 z"
       style="color:#000000;font-style:normal;font-variant:normal;font-weight:400;font-stretch:normal;font-size:medium;line-height:normal;font-family:Sans;-inkscape-font-specification:Sans;text-indent:0;text-align:start;text-decoration:none;text-decoration-line:none;letter-spacing:normal;word-spacing:normal;text-transform:none;writing-mode:lr-tb;direction:ltr;baseline-shift:baseline;text-anchor:start;display:inline;overflow:visible;visibility:visible;fill:#ffffff;fill-opacity:1;stroke:none;stroke-width:0.264583;marker:none;enable-background:accumulate"
       id="path142" /><path
       d="m 91.797762,56.997796 v 1.000919 h -0.01164 l 0.02328,0.09313 -0.2794,0.2794 c 0.08943,-0.0011 0.178329,5.29e-4 0.267758,0 v 15.643224 c -3.252523,0.03228 -6.3119,0.900642 -8.962231,2.397919 l -1.850761,-3.200929 -0.1397,0.523875 1.664229,2.874698 a 18.668735,18.668735 0 0 0 -6.55267,6.5532 l -5.12154,-2.956454 -0.511969,0.116416 -0.02328,0.01164 5.458883,3.154098 c -1.497277,2.650596 -2.365639,5.709708 -2.397918,8.962496 h -11.13896 l 0.04657,0.372533 h 11.092392 c 0.03228,3.252787 0.900641,6.3119 2.397918,8.962229 l -7.658893,4.42304 v 0.43074 l 7.856802,-4.52782 a 18.668735,18.668735 0 0 0 6.552935,6.55294 l -2.502429,4.34181 0.325702,0.186 2.502694,-4.3299 c 2.650331,1.49728 5.709708,2.36564 8.962231,2.39792 v 1.94363 l 0.372533,0.17462 v -2.11825 c 3.252788,-0.0323 6.3119,-0.90064 8.962232,-2.39792 l 7.82187,13.54852 a 34.106114,34.106114 0 0 1 -5.3541,2.4675 l 0.46566,0.23283 a 34.456158,34.456158 0 0 0 5.07471,-2.37463 l 1.01256,1.75763 0.32597,-0.19791 -1.01283,-1.75736 a 34.828427,34.828427 0 0 0 12.41954,-12.41955 l 4.14338,2.38628 0.1516,-0.34925 -4.09733,-2.36273 c 2.86226,-5.00856 4.50691,-10.797111 4.53945,-16.970369 h 5.0165 l -0.11641,-0.372533 h -4.90009 c -0.0325,-6.173259 -1.67719,-11.961813 -4.53945,-16.970375 l 3.25913,-1.885421 v -0.01164 l -0.18626,-0.314325 -3.27052,1.885686 a 34.813345,34.813345 0 0 0 -7.75202,-9.137121 l -0.34925,0.174625 a 34.444516,34.444516 0 0 1 7.78668,9.148498 l -13.55989,7.821877 a 18.668735,18.668735 0 0 0 -6.55294,-6.5532 l 7.82188,-13.559896 a 34.333391,34.333391 0 0 1 4.23677,2.933171 l 0.0466,-0.430742 c -0.14923,-0.118798 -0.30295,-0.232833 -0.45403,-0.34925 l -0.0466,-0.01138 v -0.03493 a 34.712539,34.712539 0 0 0 -3.59675,-2.420937 l 0.10478,-0.174625 -0.50033,0.174625 -0.50059,-0.08176 c 0.12726,0.07064 0.25797,0.137583 0.38417,0.20955 l -7.82187,13.548518 c -2.650332,-1.497277 -5.709709,-2.365639 -8.962232,-2.397919 v -15.64296 c 0.109009,5.29e-4 0.216959,0.0098 0.325967,0.01164 l -0.06985,-0.384175 c -0.08572,-0.0011 -0.170392,5.29e-4 -0.256117,0 v -1.000919 h -0.372533 z m 8.985778,2.129896 -0.46567,0.267759 c 0.41196,0.103187 0.81624,0.219604 1.22238,0.337608 l -0.0468,-0.407458 c -0.23548,-0.06694 -0.47255,-0.135732 -0.70988,-0.197909 z m 0.90779,0.640292 c 0.5916,0.174625 1.17977,0.365125 1.75762,0.570177 l -0.58208,-0.454025 -1.17554,-0.116417 z m -47.558857,10.80135 -0.04657,0.407458 3.200929,1.850496 -0.605366,-0.791369 z m 4.865423,3.247496 2.886604,1.664229 a 34.459597,34.459597 0 0 0 -2.211652,4.644231 h 0.395816 a 34.139187,34.139187 0 0 1 2.141538,-4.457965 l 0.1397,0.08149 -0.430477,-0.500592 -0.314325,-0.372268 -1.280584,-0.733425 -0.06959,0.104775 v -0.09313 l -1.257035,-0.337608 z m 32.799866,0.570177 V 91.939465 L 83.021533,76.738094 a 18.145919,18.145919 0 0 1 8.776229,-2.351087 z m 0.372533,0 a 18.145919,18.145919 0 0 1 8.776225,2.351087 l -8.776225,15.201371 z m 29.587565,1.280583 c 2.83024,4.953529 4.46008,10.676731 4.49262,16.783844 h -15.64322 c -0.0323,-3.252788 -0.90065,-6.3119 -2.39792,-8.962232 l 13.54852,-7.821877 z M 82.695831,76.924361 91.47206,92.125467 76.270689,83.349238 a 18.353087,18.353087 0 0 1 6.425142,-6.424877 z m 18.576399,0 a 18.352823,18.352823 0 0 1 6.42514,6.425141 l -15.201108,8.776229 8.776228,-15.20137 z m -35.663191,0.710141 2.094971,1.210469 -0.139435,-0.174625 -0.232834,-0.197908 -0.663575,-0.337608 z m -6.1341,3.026305 a 34.148447,34.148447 0 0 0 -0.570177,1.67587 l 0.221192,0.116417 -0.535517,1.99046 0.1397,-0.06985 c 0.313796,-1.265766 0.690563,-2.507191 1.140619,-3.712897 z m 16.609483,3.014397 15.201107,8.77623 H 73.733335 a 18.145919,18.145919 0 0 1 2.351087,-8.77623 z m 31.799208,0 a 18.145919,18.145919 0 0 1 2.35109,8.77623 H 92.682264 Z M 73.73307,92.823967 H 91.285529 L 76.084158,101.6002 A 18.145919,18.145919 0 0 1 73.73307,92.823967 Z m 18.948929,0 h 17.552461 a 18.145919,18.145919 0 0 1 -2.35109,8.776233 z m 17.924991,0 h 15.64323 c -0.0326,6.107112 -1.66238,11.830313 -4.49263,16.784103 l -13.54852,-7.82187 c 1.49728,-2.650333 2.36564,-5.70971 2.39792,-8.962233 z m -19.135459,0.325967 -8.776229,15.201106 a 18.352823,18.352823 0 0 1 -6.424877,-6.42514 l 15.201106,-8.776231 z m 1.024466,0 15.201103,8.776226 a 18.352823,18.352823 0 0 1 -6.42514,6.42488 L 92.495733,93.149934 Z m -0.6985,0.186266 v 17.55219 a 18.145919,18.145919 0 0 1 -8.776229,-2.35108 z m 0.372534,0 8.776229,15.20111 a 18.145919,18.145919 0 0 1 -8.776229,2.35108 V 93.335936 Z m 15.841399,8.77623 13.55989,7.82161 a 34.447427,34.447427 0 0 1 -12.29121,12.29122 l -7.82188,-13.5599 a 18.668735,18.668735 0 0 0 6.5532,-6.5532 z"
       style="color:#000000;font-style:normal;font-variant:normal;font-weight:400;font-stretch:normal;font-size:medium;line-height:normal;font-family:Sans;-inkscape-font-specification:Sans;text-indent:0;text-align:start;text-decoration:none;text-decoration-line:none;letter-spacing:normal;word-spacing:normal;text-transform:none;writing-mode:lr-tb;direction:ltr;baseline-shift:baseline;text-anchor:start;display:inline;overflow:visible;visibility:visible;fill:#021e9b;fill-opacity:1;stroke:none;stroke-width:0.264583;marker:none;enable-background:accumulate"
       id="path144" /></g></svg>
