<?xml version="1.0" encoding="UTF-8" standalone="no"?>
<!-- Created with Inkscape (http://www.inkscape.org/) -->

<svg
   xmlns:dc="http://purl.org/dc/elements/1.1/"
   xmlns:cc="http://creativecommons.org/ns#"
   xmlns:rdf="http://www.w3.org/1999/02/22-rdf-syntax-ns#"
   xmlns:svg="http://www.w3.org/2000/svg"
   xmlns="http://www.w3.org/2000/svg"
   version="1.0"
   width="700"
   height="700"
   id="svg2">
  <defs
     id="defs4" />
  <metadata
     id="metadata7">
    <rdf:RDF>
      <cc:Work
         rdf:about="">
        <dc:format>image/svg+xml</dc:format>
        <dc:type
           rdf:resource="http://purl.org/dc/dcmitype/StillImage" />
        <dc:title></dc:title>
      </cc:Work>
    </rdf:RDF>
  </metadata>
  <g
     transform="matrix(4.5884629,0,0,4.5883527,-925.5524,-3221.7482)"
     id="g2507">
    <path
       d="m 488.57143,415.21933 a 175.71428,162.85715 0 1 1 -351.42856,0 175.71428,162.85715 0 1 1 351.42856,0 z"
       transform="matrix(0.3983746,0,0,0.4298251,153.36565,599.89056)"
       id="path2160"
       style="fill:#e6e6e6;fill-opacity:1;stroke:#ffffff;stroke-width:28.99888992;stroke-miterlimit:6;stroke-opacity:1;stroke-dasharray:none;stroke-dashoffset:0" />
    <path
       d="m 326.42859,667.7193 a 52.857145,53.928572 0 1 1 -105.71429,0 52.857145,53.928572 0 1 1 105.71429,0 z"
       transform="matrix(1.0594594,0,0,1.0384106,-11.837834,84.995429)"
       id="path12826"
       style="fill:#ffffff;fill-opacity:1;stroke:none" />
  </g>
  <path
     d="M 574.74342,350 C 574.75712,474.4392 473.88306,575.32437 349.44386,575.32437 225.00466,575.32437 124.13059,474.4392 124.14429,350 124.13059,225.5608 225.00466,124.67563 349.44386,124.67563 c 124.4392,0 225.31326,100.88517 225.29956,225.32437 l 0,0 z"
     id="path5653"
     style="fill:#ffffff;fill-opacity:1;fill-rule:nonzero;stroke-width:4;stroke-linecap:butt;stroke-miterlimit:2;stroke-opacity:1;stroke-dasharray:none" />
  <path
     d="m 576.00645,403.54266 a 135.2657,123.99356 0 1 1 -270.5314,0 135.2657,123.99356 0 1 1 270.5314,0 z"
     transform="matrix(1.6656107,0,0,1.8170298,-384.10251,-383.24905)"
     id="path3084"
     style="fill:#021e9b;fill-opacity:1;stroke:none" />
  <path
     d="m 368.15472,223.19296 -0.87863,-0.37629 0.87863,0.37629 z m 25.10346,248.35308 -3.38896,-2.00689 -10.04138,2.50863 -8.7862,-5.51896 0,2.13232 -2.13379,-2.88488 2.51034,-2.50863 -0.37655,-7.52583 2.88689,0 1.75725,-5.01727 2.00827,-0.87799 -1.63172,-2.50864 2.51034,-0.87798 -0.37654,-3.76294 -2.51035,-1.25429 3.26345,-0.37631 -2.00827,-9.15647 -5.02071,-5.01723 -3.01242,1.25431 1.25517,4.13922 -10.41795,0 -8.7862,-3.76292 -3.38896,-1.63061 -16.69381,-3.76292 -1.25517,2.0069 -5.89931,0.50169 -1.63173,0 -2.51034,4.13923 -7.1545,-5.01728 -3.76551,1.25435 0.50207,3.38663 -9.28827,-5.01728 -0.37655,3.2612 -9.16278,-4.13919 -0.50207,0.37626 -4.51864,1.75604 -0.87862,-3.38659 -10.91999,-5.39353 -11.67308,-3.76294 -2.1338,-9.6582 0,-2.13232 -4.51864,-8.27843 2.00828,-10.03446 -3.76551,-1.2543 -1.25518,-4.26466 6.27585,-0.75256 -2.8869,0 0.37656,-6.27153 -9.16278,2.88489 -0.37655,-2.50859 -1.25518,4.64093 -5.02071,2.00686 -3.38896,-3.26115 -1.25518,-3.38668 -1.25517,-6.64783 2.8869,-2.13233 1.25517,1.63059 0.87862,-2.00685 -2.13379,-15.05173 3.38896,0.75258 1.63173,-15.80429 0.50207,-0.50173 3.26345,-2.00689 -4.14207,0.3763 -1.63173,-3.76293 7.53103,-8.40387 -6.77792,-1.25431 -5.02071,5.01725 -2.00828,-5.7698 -3.01241,4.13921 -0.7531,-2.88491 -3.76552,1.25432 -2.51035,1.25431 2.00828,-7.52584 -1.63172,-0.87801 0.87862,-2.13232 -2.13379,0.50172 -0.37656,-4.26467 7.9076,0 -0.37655,-2.00689 -2.51035,0 -4.64413,-8.02755 -2.51035,0.87801 -1.63172,-2.8849 -0.87862,2.50861 -2.51035,-1.75602 2.51035,-1.6306 -3.76552,-1.25431 0.87862,-2.13233 -3.01241,-1.6306 -0.7531,-6.64783 -3.01241,-0.87802 1.75723,-1.25431 -3.38896,-8.78014 0.37655,-2.88491 1.25518,-8.78015 2.51034,0 -0.7531,5.39353 6.27584,8.78014 4.51864,5.89525 9.28828,2.50862 0,0.37629 1.25517,-2.13232 5.02071,5.89525 2.51035,2.8849 1.25517,1.25431 14.18344,6.77325 2.51035,1.25431 0.87862,0.75258 6.65242,8.02756 3.76551,-1.75604 27.61378,-6.27151 0.87862,-5.01725 2.00827,0.87801 -0.37654,-1.63059 1.25517,-0.87802 5.89931,-2.13232 0,-5.7698 2.00828,-2.13232 2.51035,-9.65819 -1.25518,-3.76292 5.89932,-14.17367 0,-2.13233 0,-6.64783 2.88689,0 3.38898,-5.01725 4.14206,-1.25431 0.50206,-4.64094 5.77378,-7.02411 2.51035,1.25431 11.79863,-4.26467 1.25518,-1.2543 2.51034,-2.50862 -0.87862,-4.13921 2.51035,0 1.25518,6.64783 12.92825,3.01034 2.1338,-2.13232 0.87862,0.37629 11.29655,2.50862 0.37656,-0.3763 5.89931,-3.38663 0.37656,3.76292 5.0207,0.50173 4.14208,3.2612 0.87859,0.87801 6.27584,5.39353 7.53104,0.50172 4.64413,0.75258 5.77378,-2.00689 0.50207,3.76293 2.51038,1.6306 2.00824,-3.76293 2.51038,0 1.75726,9.65819 2.00822,0.3763 -0.37651,3.38663 -0.37661,0.37628 0.75312,0 5.02073,-2.50861 4.64411,-1.6306 12.92829,4.51552 2.51032,-0.75258 0.87868,4.51553 3.38896,0.50172 -0.87868,-2.13232 2.8869,0 0.87866,4.64094 3.38896,-3.76293 7.90759,5.01726 2.13377,9.15646 -3.38894,0.87801 0.87866,7.02411 1.25511,2.13232 8.78621,22.20124 -4.64414,4.1392 -0.37651,5.01726 -3.76556,4.64093 4.14211,2.88491 -1.63175,1.25431 3.76552,3.76292 5.77378,0.87802 1.75725,2.50862 1.63169,3.2612 4.14207,1.75602 5.02075,-3.38663 3.38892,0.3763 -4.14203,5.89525 4.14203,10.91245 -5.0207,4.13921 2.13381,6.64784 -1.25514,5.89525 2.51029,3.38664 6.65244,1.25429 -6.65244,9.15647 1.25519,1.63063 1.63173,1.75599 -2.88692,4.51555 2.88692,1.75602 -14.6855,12.04136 3.38896,8.40386 -0.87863,5.01727 -5.02074,1.63055 -1.2551,4.26467 -5.77378,2.50864 -1.75726,5.39353 -1.25517,2.88489 5.89933,3.01037 -8.78623,0.75256 2.13377,4.64093 -4.26758,4.13924 -6.65245,1.25429 -2.13378,3.76294 5.02071,2.5086 -9.53929,8.78015 2.88688,4.64093 -7.53102,-1.6306 -8.40967,5.01727 -11.29653,5.39352 -2.51038,3.76294 -1.63169,-1.25431 1.63169,-3.76297 -7.53104,2.8849 -1.63169,-2.8849 -11.29655,6.64787 -5.0207,-1.63059 -9.16277,1.63059 -2.51037,-1.25433 m 0.37656,-242.45764 -0.87864,-0.87801 -0.37651,0 0,0.50172 0.87859,0 0.37656,0.37629 0,0 z m -2.88692,241.20354 2.51036,1.25431 -2.51036,-1.25431 z m 0,0 2.51036,1.25431 m -178.73653,-173.84701 0.50207,-3.01034 -4.64414,-2.88491 4.14207,5.89525 0,0 z m -10.04138,-23.07927 -2.51034,0 1.25517,3.76292 1.25517,-3.2612 0,-0.50173 0,0 z m -1.25517,-3.76292 -1.25517,1.2543 2.51034,1.75604 -1.25517,-3.01034 z m 11.29655,26.84216 0.50207,-3.01034 -4.64414,-2.8849 4.14208,5.89525 0,0 z m -10.04137,-23.07927 -2.51035,0 1.25517,3.76292 1.25518,-3.26119 0,-0.50173 0,0 z m -1.25518,-3.76292 -1.25517,1.25431 2.51035,1.75603 -1.25518,-3.01034 z m 11.29656,26.84217 0.50207,-3.01034 -4.64413,-2.8849 4.14206,5.89524 0,0 z m -10.04138,-23.07927 -2.51034,0 1.25516,3.76292 1.25518,-3.2612 0,-0.50173 0,0 z m -1.25518,-3.76292 -1.25516,1.2543 2.51034,1.75604 -1.25518,-3.01034 z m 7.53104,-8.78015 0,-3.2612 -2.88691,0.75258 0.37655,2.13233 2.51036,0.37629 0,0 z m -3.26347,-9.15646 0.75311,1.6306 1.75725,-3.76293 -2.51036,1.75603 0,0.3763 0,0 z m 3.26347,9.15646 0,-3.2612 -2.88691,0.75258 0.37655,2.13233 2.51036,0.37629 0,0 z m -3.26347,-9.15646 0.75311,1.6306 1.75725,-3.76293 -2.51036,1.75603 0,0.3763 0,0 z m 3.26347,9.15646 0,-3.2612 -2.88691,0.75258 0.37655,2.13233 2.51036,0.37629 0,0 z m -3.26347,-9.15646 0.75311,1.6306 1.75725,-3.76293 -2.51036,1.75603 0,0.3763 0,0 z m 44.68425,127.93945 -2.8869,0.37634 -2.51035,3.38659 4.14208,-0.87799 1.25517,-2.8849 0,0 z m 0,0 -2.8869,0.37634 -2.51035,3.38659 4.14208,-0.87799 1.25517,-2.8849 0,0 z m 0,0 -2.8869,0.37634 -2.51035,3.38659 4.14208,-0.87799 1.25517,-2.8849 0,0 z m 3.01241,-84.91647 -0.87862,-0.75258 -2.51035,-1.25431 2.51035,1.25431 0.87862,0.75258 z"
     id="use27"
     style="fill:#ffffff" />
  <path
     d="m 350.71875,124.90625 a 225.3,225.29999 0 0 0 -1.4375,0.0312 l 0,37.125 c -33.71873,0.12426 -65.30788,9.14198 -92.625,24.8125 L 238.125,154.78125 a 225.3,225.29999 0 0 0 -1.25,0.71875 l 18.53125,32.09375 c -28.03985,16.36708 -51.44542,39.77266 -67.8125,67.8125 l -32.15625,-18.5625 a 225.3,225.29999 0 0 0 -0.75,1.21875 l 32.1875,18.59375 c -15.67052,27.31712 -24.68824,58.90627 -24.8125,92.625 l -37.34375,0 A 225.3,225.29999 0 0 0 124.6875,350 a 225.3,225.29999 0 0 0 0.0312,0.71875 l 37.34375,0 c 0.12426,33.71871 9.14198,65.30789 24.8125,92.625 l -32.1875,18.59375 a 225.3,225.29999 0 0 0 0.65625,1.25 l 32.25,-18.59375 c 16.36708,28.03984 39.77265,51.4454 67.8125,67.8125 L 236.75,544.71875 a 225.3,225.29999 0 0 0 1.28125,0.65625 l 18.625,-32.25 c 27.31712,15.67053 58.90627,24.68824 92.625,24.8125 l 0,37.15625 a 225.3,225.29999 0 0 0 1.4375,-0.0312 l 0,-37.125 c 33.71871,-0.1243 65.30789,-9.14197 92.625,-24.8125 l 18.53125,32.09375 a 225.3,225.29999 0 0 0 1.25,-0.71875 l -18.53125,-32.09375 c 28.03984,-16.3671 51.4454,-39.77266 67.8125,-67.8125 l 32.15625,18.5625 a 225.3,225.29999 0 0 0 0.75,-1.21875 L 513.125,443.34375 c 15.67053,-27.31711 24.68824,-58.90629 24.8125,-92.625 l 37.34375,0 A 225.3,225.29999 0 0 0 575.3125,350 a 225.3,225.29999 0 0 0 -0.0312,-0.71875 l -37.34375,0 c -0.1243,-33.71873 -9.14197,-65.30788 -24.8125,-92.625 l 32.1875,-18.59375 a 225.3,225.29999 0 0 0 -0.65625,-1.25 l -32.25,18.59375 c -16.3671,-28.03984 -39.77266,-51.44542 -67.8125,-67.8125 L 463.25,155.28125 a 225.3,225.29999 0 0 0 -1.28125,-0.65625 l -18.625,32.25 c -27.31711,-15.67052 -58.90629,-24.68824 -92.625,-24.8125 l 0,-37.15625 z m -1.4375,38.5625 0,55.625 c -23.33235,0.12283 -45.19509,6.3384 -64.125,17.15625 l -27.8125,-48.1875 c 27.09904,-15.53209 58.48965,-24.4694 91.9375,-24.59375 z m 1.4375,0 c 33.44783,0.12435 64.83846,9.06166 91.9375,24.59375 l -27.8125,48.1875 c -18.92991,-10.81785 -40.79266,-17.03342 -64.125,-17.15625 l 0,-55.625 z M 256.125,188.8125 283.9375,237 C 264.56048,248.35719 248.35719,264.56048 237,283.9375 L 188.8125,256.125 c 16.24678,-27.84437 39.46812,-51.06573 67.3125,-67.3125 z m 187.75,0 c 27.84438,16.24677 51.06573,39.46813 67.3125,67.3125 L 463,283.9375 C 451.6428,264.56048 435.43953,248.35719 416.0625,237 l 27.8125,-48.1875 z m -94.59375,31.6875 0,59.125 c -12.29372,0.12151 -23.82666,3.40386 -33.84375,9.0625 L 285.875,237.46875 C 304.59812,226.77174 326.19947,220.62304 349.28125,220.5 z m 1.4375,0 c 23.08178,0.12305 44.68314,6.27174 63.40625,16.96875 l -29.5625,51.21875 c -10.01709,-5.65864 -21.55003,-8.94098 -33.84375,-9.0625 l 0,-59.125 z m -66.09375,17.6875 29.5625,51.25 c -10.20836,6.04496 -18.70504,14.54164 -24.75,24.75 l -51.25,-29.5625 c 11.23606,-19.17846 27.25904,-35.20144 46.4375,-46.4375 z m 130.75,0 c 19.17846,11.23606 35.20144,27.25904 46.4375,46.4375 l -51.25,29.5625 c -6.04496,-10.20836 -14.54164,-18.70504 -24.75,-24.75 l 29.5625,-51.25 z m -227.3125,19.15625 48.1875,27.8125 c -10.81785,18.92991 -17.03341,40.79265 -17.15625,64.125 l -55.625,0 c 0.12435,-33.44785 9.06166,-64.83846 24.59375,-91.9375 z m 323.875,0 c 15.53209,27.09904 24.46941,58.48965 24.59375,91.9375 l -55.625,0 c -0.12289,-23.33235 -6.3384,-45.19509 -17.15625,-64.125 l 48.1875,-27.8125 z m -162.65625,23.6875 0,66.34375 -33.15625,-57.46875 c 9.81865,-5.54858 21.09921,-8.75446 33.15625,-8.875 z m 1.4375,0 c 12.05703,0.12053 23.3376,3.32642 33.15625,8.875 l -33.15625,57.46875 0,-66.34375 z m -113.25,4.84375 51.21875,29.5625 c -5.65864,10.01709 -8.94099,21.55003 -9.0625,33.84375 l -59.125,0 c 0.12303,-23.08178 6.27174,-44.68313 16.96875,-63.40625 z m 225.0625,0 c 10.69701,18.72312 16.8457,40.32447 16.96875,63.40625 l -59.125,0 c -0.12149,-12.29372 -3.40387,-23.82666 -9.0625,-33.84375 l 51.21875,-29.5625 z m -147.625,4.75 33.15625,57.4375 -57.4375,-33.15625 c 5.91755,-9.98835 14.2929,-18.3637 24.28125,-24.28125 z m 70.1875,0 c 9.98836,5.91755 18.36371,14.2929 24.28125,24.28125 l -57.4375,33.15625 33.15625,-57.4375 z m -95.1875,25.5 57.46875,33.15625 -66.34375,0 c 0.1205,-12.05704 3.32642,-23.3376 8.875,-33.15625 z m 120.1875,0 c 5.54858,9.81865 8.75447,21.09921 8.875,33.15625 l -66.34375,0 57.46875,-33.15625 z m -246.625,34.59375 55.625,0 c 0.1229,23.33234 6.3384,45.19509 17.15625,64.125 l -48.1875,27.8125 c -15.53209,-27.09904 -24.4694,-58.48967 -24.59375,-91.9375 z m 57.03125,0 59.125,0 c 0.12148,12.29372 3.40386,23.82666 9.0625,33.84375 L 237.46875,414.125 C 226.77174,395.40189 220.62305,373.80053 220.5,350.71875 z m 60.53125,0 66.34375,0 -57.46875,33.15625 c -5.54858,-9.81866 -8.75447,-21.09922 -8.875,-33.15625 z m 71.59375,0 66.34375,0 c -0.1205,12.05703 -3.32642,23.33759 -8.875,33.15625 L 352.625,350.71875 z m 67.75,0 59.125,0 c -0.12304,23.08178 -6.27174,44.68314 -16.96875,63.40625 L 411.3125,384.5625 c 5.65863,-10.01709 8.94098,-21.55003 9.0625,-33.84375 z m 60.53125,0 55.625,0 c -0.1243,33.44783 -9.06166,64.83846 -24.59375,91.9375 L 463.75,414.84375 c 10.81785,-18.92991 17.03341,-40.79266 17.15625,-64.125 z M 348.0625,351.9375 314.90625,409.375 c -9.98835,-5.91754 -18.3637,-14.29289 -24.28125,-24.28125 l 57.4375,-33.15625 z m 3.875,0 57.4375,33.15625 c -5.91754,9.98836 -14.29289,18.36371 -24.28125,24.28125 L 351.9375,351.9375 z m -2.65625,0.6875 0,66.34375 c -12.05704,-0.1205 -23.3376,-3.32642 -33.15625,-8.875 L 349.28125,352.625 z m 1.4375,0 33.15625,57.46875 c -9.81865,5.54858 -21.09922,8.75447 -33.15625,8.875 l 0,-66.34375 z m -61.28125,33.1875 c 6.04496,10.20836 14.54164,18.70504 24.75,24.75 l -29.5625,51.25 C 265.44654,450.57644 249.42356,434.55346 238.1875,415.375 l 51.25,-29.5625 z m 121.125,0 51.25,29.5625 c -11.23606,19.17846 -27.25904,35.20144 -46.4375,46.4375 l -29.5625,-51.25 c 10.20836,-6.04496 18.70504,-14.54164 24.75,-24.75 z m -95.125,25.5 c 10.01709,5.65863 21.55003,8.94098 33.84375,9.0625 l 0,59.125 c -23.08178,-0.12304 -44.68313,-6.27174 -63.40625,-16.96875 l 29.5625,-51.21875 z m 69.125,0 29.5625,51.21875 c -18.72311,10.69701 -40.32447,16.8457 -63.40625,16.96875 l 0,-59.125 c 12.29372,-0.12149 23.82666,-3.40387 33.84375,-9.0625 z M 237,416.0625 c 11.35719,19.37702 27.56048,35.5803 46.9375,46.9375 L 256.125,511.1875 C 228.28062,494.94073 205.05928,471.71938 188.8125,443.875 L 237,416.0625 z m 226,0 48.1875,27.8125 c -16.24677,27.84438 -39.46812,51.06573 -67.3125,67.3125 L 416.0625,463 C 435.43953,451.6428 451.6428,435.43952 463,416.0625 z M 285.15625,463.75 c 18.92991,10.81785 40.79265,17.03341 64.125,17.15625 l 0,55.625 c -33.44785,-0.1243 -64.83846,-9.06166 -91.9375,-24.59375 l 27.8125,-48.1875 z m 129.6875,0 27.8125,48.1875 c -27.09904,15.53209 -58.48967,24.46941 -91.9375,24.59375 l 0,-55.625 c 23.33234,-0.12289 45.19509,-6.3384 64.125,-17.15625 z"
     id="circle3129"
     style="font-size:medium;font-style:normal;font-variant:normal;font-weight:normal;font-stretch:normal;text-indent:0;text-align:start;text-decoration:none;line-height:normal;letter-spacing:normal;word-spacing:normal;text-transform:none;direction:ltr;block-progression:tb;writing-mode:lr-tb;text-anchor:start;baseline-shift:baseline;color:#000000;fill:#ffffff;fill-opacity:1;stroke:none;stroke-width:1;marker:none;visibility:visible;display:inline;overflow:visible;enable-background:accumulate;font-family:Sans;-inkscape-font-specification:Sans" />
  <path
     d="m 349.29614,215.29756 0,3.78328 c -0.0148,8e-5 -0.0293,-8e-5 -0.0439,0 l 0.088,0.35194 -1.0558,1.0558 c 0.3378,-0.004 0.67337,0.002 1.01181,0 l 0,59.12478 c -12.29372,0.12151 -23.85649,3.40364 -33.87358,9.06228 l -6.99467,-12.09771 -0.5279,1.97963 6.29081,10.86594 c -10.20836,6.04496 -18.72234,14.55894 -24.7673,24.7673 l -19.35633,-11.17388 -1.93563,0.43991 -0.088,0.0439 20.63209,11.92174 c -5.65871,10.01716 -8.94084,21.57993 -9.06235,33.87365 l -42.10002,0 0.17597,1.40773 41.92405,0 c 0.12148,12.29372 3.40364,23.85648 9.06228,33.87357 l -28.94651,16.71683 0,1.62769 29.69437,-17.11275 c 6.04496,10.20836 14.55894,18.72234 24.7673,24.7673 l -9.45821,16.40889 1.23177,0.70386 9.4582,-16.36489 c 10.01709,5.65863 21.57986,8.94076 33.87358,9.06228 l 0,7.3466 1.40773,0.65988 0,-8.00648 c 12.29372,-0.12149 23.85648,-3.40365 33.87357,-9.06228 l 29.56239,51.20628 c -6.42216,3.66914 -13.18854,6.78509 -20.23616,9.32623 l 1.75967,0.87983 c 6.66405,-2.48072 13.07879,-5.48744 19.18036,-8.97429 l 3.82727,6.64274 1.23177,-0.74786 -3.82728,-6.64274 c 19.37703,-11.3572 35.5819,-27.56207 46.9391,-46.93909 l 15.66103,9.01828 0.57189,-1.31975 -15.48506,-8.9303 c 10.81785,-18.92991 17.0339,-40.80749 17.15674,-64.13983 l 18.9604,0 -0.43991,-1.40773 -18.52049,0 C 480.7963,325.96377 474.5803,304.0862 463.76245,285.15629 l 12.31766,-7.12665 0,-0.044 -0.70387,-1.18778 -12.36165,7.12665 C 455.307,270.77424 445.36541,259.09562 433.71615,249.39106 l -1.31975,0.65988 c 11.72501,9.67736 21.70562,21.39225 29.43041,34.57744 l -51.25027,29.56239 c -6.04496,-10.20836 -14.55894,-18.72234 -24.7673,-24.7673 l 29.56239,-51.25028 c 5.62338,3.29456 10.97114,7.00721 16.01296,11.0859 l 0.17597,-1.62769 c -0.56322,-0.4494 -1.14494,-0.87952 -1.71568,-1.31975 l -0.17596,-0.044 0,-0.13197 c -4.32511,-3.32321 -8.86646,-6.37971 -13.59343,-9.15026 l 0.39593,-0.65988 -1.89164,0.65988 -1.89164,-0.30795 c 0.48095,0.26672 0.97453,0.51922 1.45172,0.79185 l -29.56239,51.20629 c -10.01709,-5.65864 -21.57985,-8.94076 -33.87357,-9.06228 l 0,-59.12478 c 0.4123,0.002 0.8204,0.0379 1.23176,0.044 l -0.26395,-1.45173 c -0.32337,-0.004 -0.64388,0.002 -0.96781,0 l 0,-3.78328 -1.40773,0 z m 33.96155,8.05047 -1.75966,1.01181 c 1.55658,0.38926 3.08545,0.83069 4.61912,1.27576 l -0.17597,-1.53971 c -0.88928,-0.25317 -1.78659,-0.51314 -2.68349,-0.74786 z m 3.43135,2.41954 c 2.23609,0.65999 4.45878,1.37985 6.64274,2.15559 l -2.19958,-1.71567 -4.44316,-0.43992 z m -179.74989,40.82426 -0.17597,1.53971 12.0977,6.99467 -2.28756,-2.99143 -9.63417,-5.54295 z m 18.38851,12.27367 10.90993,6.29081 c -3.20252,5.604 -6.0012,11.47072 -8.35842,17.55267 l 1.49572,0 c 2.29184,-5.83769 5.01479,-11.45841 8.09446,-16.84881 l 0.5279,0.30794 -1.62769,-1.89164 -1.18777,-1.40773 -4.83908,-2.77147 -0.26395,0.39592 0,-0.35193 -4.7511,-1.27576 z m 123.96848,2.15559 0,66.33941 -33.16971,-57.4531 c 9.81865,-5.54858 21.11267,-8.76577 33.16971,-8.88631 z m 1.40773,0 c 12.05703,0.12053 23.35105,3.33773 33.1697,8.88631 l -33.1697,57.4531 0,-66.33941 z m 111.82678,4.83908 c 10.69701,18.72312 16.85773,40.35419 16.98078,63.43597 l -59.12478,0 c -0.12149,-12.29372 -3.40365,-23.85649 -9.06228,-33.87358 l 51.20628,-29.56239 z m -147.63599,4.7511 33.16971,57.4531 -57.4531,-33.16971 c 5.91755,-9.98835 14.29504,-18.36584 24.28339,-24.28339 z m 70.21068,0 c 9.98836,5.91755 18.36585,14.29504 24.28339,24.28339 l -57.4531,33.16971 33.16971,-57.4531 z m -134.79042,2.68349 7.91849,4.57513 -0.5279,-0.65987 -0.87983,-0.74786 -2.50752,-1.27576 -4.00324,-1.89164 z m -23.18361,11.43783 c -0.77163,2.09333 -1.48957,4.19279 -2.15559,6.3348 l 0.83585,0.43992 -2.02362,7.52257 0.5279,-0.26395 c 1.18568,-4.78359 2.60996,-9.4762 4.31118,-14.03334 l -1.49572,0 z m 62.77609,11.39384 57.4531,33.16971 -66.33941,0 c 0.1205,-12.05704 3.33773,-23.35106 8.88631,-33.16971 z m 120.1852,0 c 5.54858,9.81865 8.76578,21.11267 8.88631,33.16971 l -66.33941,0 57.4531,-33.16971 z m -129.07151,34.57744 66.33941,0 -57.4531,33.16971 c -5.54858,-9.81866 -8.76578,-21.11268 -8.88631,-33.16971 z m 71.61841,0 66.33941,0 c -0.1205,12.05703 -3.33773,23.35105 -8.88631,33.16971 l -57.4531,-33.16971 z m 67.74715,0 59.12478,0 c -0.12304,23.08178 -6.28377,44.71285 -16.98078,63.43596 l -51.20628,-29.56239 c 5.65863,-10.01709 8.94076,-21.57985 9.06228,-33.87357 z m -72.32228,1.23176 -33.16971,57.4531 c -9.98835,-5.91754 -18.36584,-14.29503 -24.28339,-24.28339 l 57.4531,-33.16971 z m 3.87126,0 57.4531,33.16971 c -5.91754,9.98836 -14.29503,18.36585 -24.28339,24.28339 l -33.16971,-57.4531 z m -2.63949,0.70387 0,66.33941 c -12.05704,-0.1205 -23.35106,-3.33773 -33.16971,-8.88631 l 33.16971,-57.4531 z m 1.40773,0 33.1697,57.4531 c -9.81865,5.54858 -21.11267,8.76578 -33.1697,8.88631 l 0,-66.33941 z m 59.87264,33.16971 51.25027,29.56239 c -11.23606,19.17846 -27.27672,35.21912 -46.45518,46.45518 l -29.56239,-51.25027 c 10.20836,-6.04496 18.72234,-14.55894 24.7673,-24.7673 z"
     id="path3195"
     style="font-size:medium;font-style:normal;font-variant:normal;font-weight:normal;font-stretch:normal;text-indent:0;text-align:start;text-decoration:none;line-height:normal;letter-spacing:normal;word-spacing:normal;text-transform:none;direction:ltr;block-progression:tb;writing-mode:lr-tb;text-anchor:start;baseline-shift:baseline;color:#000000;fill:#021e9b;fill-opacity:1;stroke:none;stroke-width:1;marker:none;visibility:visible;display:inline;overflow:visible;enable-background:accumulate;font-family:Sans;-inkscape-font-specification:Sans" />
</svg>
