<svg xmlns="http://www.w3.org/2000/svg" version="1.0" width="700" height="700"><path d="M488.571 415.22a175.714 162.857 0 1 1-351.428 0 175.714 162.857 0 1 1 351.428 0z" transform="matrix(1.82793 0 0 1.97219 -221.84 -469.239)" style="fill:#e6e6e6;fill-opacity:1;stroke:#fff;stroke-width:28.99888992;stroke-miterlimit:6;stroke-opacity:1;stroke-dasharray:none;stroke-dashoffset:0"/><path d="M326.429 667.72a52.857 53.929 0 1 1-105.715 0 52.857 53.929 0 1 1 105.715 0z" transform="matrix(4.86129 0 0 4.7646 -979.87 -2831.76)" style="fill:#fff;fill-opacity:1;stroke:none"/><path d="M574.743 350c.014 124.44-100.86 225.324-225.3 225.324-124.438 0-225.312-100.885-225.299-225.324-.013-124.44 100.86-225.324 225.3-225.324 124.44 0 225.313 100.885 225.3 225.324z" style="fill:#fff;fill-opacity:1;fill-rule:nonzero;stroke-width:4;stroke-linecap:butt;stroke-miterlimit:2;stroke-opacity:1;stroke-dasharray:none"/><path d="M576.006 403.543a135.266 123.994 0 1 1-270.531 0 135.266 123.994 0 1 1 270.531 0z" transform="matrix(1.66561 0 0 1.81703 -384.103 -383.25)" style="fill:#021e9b;fill-opacity:1;stroke:none"/><path d="m368.155 223.193-.879-.376.879.376zm25.103 248.353-3.389-2.007-10.041 2.509-8.786-5.52v2.133l-2.134-2.885 2.51-2.508-.376-7.526h2.887l1.757-5.017 2.008-.878-1.632-2.51 2.51-.877-.376-3.763-2.51-1.254 3.263-.377-2.008-9.156-5.02-5.017-3.013 1.254 1.255 4.14h-10.418l-8.786-3.764-3.39-1.63-16.693-3.763-1.255 2.007-5.9.501h-1.631l-2.51 4.14-7.155-5.018-3.765 1.255.502 3.386-9.289-5.017-.376 3.261-9.163-4.139-.502.376-4.519 1.756-.878-3.386-10.92-5.394-11.673-3.763-2.134-9.658v-2.132l-4.519-8.279 2.008-10.034-3.765-1.254-1.255-4.265 6.276-.753h-2.887l.376-6.271-9.163 2.885-.376-2.509-1.255 4.641-5.021 2.007-3.389-3.261-1.255-3.387-1.255-6.648 2.887-2.132 1.255 1.63.878-2.006-2.133-15.052 3.389.752 1.631-15.804.502-.502 3.264-2.006-4.142.376-1.632-3.763 7.531-8.404-6.778-1.254-5.02 5.017-2.009-5.77-3.012 4.14-.753-2.885-3.766 1.254-2.51 1.254 2.008-7.526-1.632-.878.879-2.132-2.134.502-.376-4.265h7.907l-.376-2.007h-2.51l-4.645-8.027-2.51.878-1.632-2.885-.879 2.508-2.51-1.756 2.51-1.63-3.765-1.255.879-2.132-3.013-1.63-.753-6.648-3.012-.878 1.757-1.255-3.39-8.78.377-2.885 1.256-8.78h2.51l-.753 5.394 6.276 8.78 4.518 5.895 9.289 2.509v.376l1.255-2.132 5.02 5.895 2.51 2.885 1.256 1.254 14.183 6.773 2.51 1.255.88.752 6.652 8.028 3.765-1.756 27.614-6.272.879-5.017 2.008.878-.376-1.63 1.255-.879 5.899-2.132v-5.77l2.008-2.132 2.51-9.658-1.255-3.763 5.9-14.174v-8.78h2.887l3.389-5.017 4.142-1.255.502-4.64 5.774-7.025 2.51 1.255 11.799-4.265 1.255-1.254 2.51-2.509-.879-4.14h2.51l1.256 6.649 12.928 3.01 2.134-2.132.879.376 11.296 2.509.377-.377 5.9-3.386.376 3.763 5.02.501 4.142 3.262.879.878 6.276 5.393 7.53.502 4.645.752 5.774-2.007.502 3.763 2.51 1.631 2.008-3.763h2.51l1.758 9.658 2.008.377-.376 3.386-.377.376h.753l5.021-2.508 4.644-1.63 12.928 4.515 2.51-.753.88 4.516 3.388.501-.878-2.132h2.887l.878 4.641 3.39-3.763 7.907 5.017 2.134 9.157-3.39.878.88 7.024 1.254 2.132 8.787 22.202-4.644 4.139-.377 5.017-3.766 4.641 4.143 2.885-1.632 1.254 3.765 3.763 5.774.878 1.757 2.509 1.632 3.26 4.142 1.757 5.02-3.387 3.39.377-4.142 5.895 4.142 10.912-5.02 4.14 2.133 6.647-1.255 5.896 2.51 3.386 6.652 1.255-6.652 9.156 1.255 1.63 1.632 1.757-2.887 4.515 2.887 1.756-14.686 12.042 3.39 8.403-.88 5.018-5.02 1.63-1.255 4.265-5.774 2.509-1.757 5.393-1.255 2.885 5.9 3.01-8.787.753 2.134 4.64-4.268 4.14-6.652 1.254-2.134 3.763 5.02 2.509-9.539 8.78 2.887 4.641-7.53-1.63-8.41 5.017-11.297 5.393-2.51 3.763-1.632-1.254 1.632-3.763-7.532 2.885-1.631-2.885-11.297 6.648-5.02-1.63-9.163 1.63-2.51-1.255m.376-242.457-.879-.878h-.376v.501h.878l.377.377zm-2.887 241.203 2.51 1.255-2.51-1.255zm0 0 2.51 1.255M217.032 298.954l.502-3.01-4.644-2.886 4.142 5.896zm-10.042-23.08h-2.51l1.255 3.763 1.255-3.261v-.502zm-1.255-3.763-1.255 1.255 2.51 1.756-1.255-3.01zm11.297 26.843.502-3.01-4.644-2.886 4.142 5.896zm-10.042-23.08h-2.51l1.255 3.763 1.255-3.261v-.502zm-1.255-3.763-1.255 1.255 2.51 1.756-1.255-3.01zm11.297 26.843.502-3.01-4.644-2.886 4.142 5.896zm-10.042-23.08h-2.51l1.255 3.763 1.255-3.261v-.502zm-1.255-3.763-1.255 1.255 2.51 1.756-1.255-3.01zm7.531-8.78v-3.261l-2.887.753.377 2.132 2.51.376zm-3.263-9.156.753 1.63 1.757-3.763-2.51 1.756v.377zm3.263 9.156v-3.261l-2.887.753.377 2.132 2.51.376zm-3.263-9.156.753 1.63 1.757-3.763-2.51 1.756v.377zm3.263 9.156v-3.261l-2.887.753.377 2.132 2.51.376zm-3.263-9.156.753 1.63 1.757-3.763-2.51 1.756v.377zm44.684 127.94-2.887.376-2.51 3.386 4.142-.878 1.255-2.885zm0 0-2.887.376-2.51 3.386 4.142-.878 1.255-2.885zm0 0-2.887.376-2.51 3.386 4.142-.878 1.255-2.885zm3.013-84.917-.88-.753-2.51-1.254 2.51 1.254.88.753z" style="fill:#fff"/><path d="M350.719 124.906a225.3 225.3 0 0 0-1.438.031v37.125c-33.718.125-65.308 9.142-92.625 24.813l-18.531-32.094a225.3 225.3 0 0 0-1.25.719l18.531 32.094a188.807 188.807 0 0 0-67.812 67.812l-32.156-18.562a225.3 225.3 0 0 0-.75 1.219l32.187 18.593c-15.67 27.317-24.688 58.907-24.813 92.625H124.72a225.3 225.3 0 0 0-.031.719 225.3 225.3 0 0 0 .03.719h37.344c.125 33.718 9.142 65.308 24.813 92.625l-32.188 18.594a225.3 225.3 0 0 0 .657 1.25l32.25-18.594a188.807 188.807 0 0 0 67.812 67.812L236.75 544.72a225.3 225.3 0 0 0 1.281.656l18.625-32.25c27.317 15.67 58.907 24.688 92.625 24.813v37.156a225.3 225.3 0 0 0 1.438-.031v-37.125c33.718-.125 65.308-9.142 92.625-24.813l18.531 32.094a225.3 225.3 0 0 0 1.25-.719l-18.531-32.094a188.807 188.807 0 0 0 67.812-67.812l32.157 18.562a225.3 225.3 0 0 0 .75-1.218l-32.188-18.594c15.67-27.317 24.688-58.907 24.813-92.625h37.343a225.3 225.3 0 0 0 .032-.719 225.3 225.3 0 0 0-.032-.719h-37.343c-.125-33.718-9.142-65.308-24.813-92.625l32.188-18.594a225.3 225.3 0 0 0-.657-1.25l-32.25 18.594a188.807 188.807 0 0 0-67.812-67.812l18.656-32.313a225.3 225.3 0 0 0-1.281-.656l-18.625 32.25c-27.317-15.67-58.907-24.688-92.625-24.813v-37.156zm-1.438 38.563v55.625c-23.332.123-45.195 6.338-64.125 17.156l-27.812-48.188c27.099-15.532 58.49-24.469 91.937-24.593zm1.438 0c33.448.124 64.838 9.061 91.937 24.594l-27.812 48.187c-18.93-10.818-40.793-17.033-64.125-17.156v-55.625zm-94.594 25.344L283.938 237A131.626 131.626 0 0 0 237 283.938l-48.188-27.813a187.245 187.245 0 0 1 67.313-67.313zm187.75 0a187.244 187.244 0 0 1 67.313 67.312L463 283.938A131.626 131.626 0 0 0 416.062 237l27.813-48.188zM349.281 220.5v59.125a70.008 70.008 0 0 0-33.844 9.063l-29.562-51.22c18.723-10.696 40.324-16.845 63.406-16.968zm1.438 0c23.082.123 44.683 6.272 63.406 16.969l-29.563 51.219a70.009 70.009 0 0 0-33.843-9.063V220.5zm-66.094 17.688 29.563 51.25a70.462 70.462 0 0 0-24.75 24.75l-51.25-29.563a130.097 130.097 0 0 1 46.437-46.438zm130.75 0a130.097 130.097 0 0 1 46.438 46.437l-51.25 29.563a70.462 70.462 0 0 0-24.75-24.75l29.562-51.25zm-227.313 19.156 48.188 27.812c-10.818 18.93-17.033 40.793-17.156 64.125h-55.625c.124-33.448 9.061-64.838 24.594-91.937zm323.875 0c15.533 27.099 24.47 58.49 24.594 91.937h-55.625c-.123-23.332-6.338-45.195-17.156-64.125l48.188-27.812zM349.281 281.03v66.344l-33.156-57.469c9.819-5.548 21.1-8.754 33.156-8.875zm1.438 0c12.057.12 23.337 3.327 33.156 8.875l-33.156 57.469v-66.344zm-113.25 4.844 51.219 29.563a70.008 70.008 0 0 0-9.063 33.843H220.5c.123-23.082 6.272-44.683 16.969-63.406zm225.062 0c10.697 18.723 16.846 40.324 16.969 63.406h-59.125a70.008 70.008 0 0 0-9.063-33.844l51.22-29.562zm-147.625 4.75 33.156 57.438-57.437-33.157a69.354 69.354 0 0 1 24.281-24.281zm70.188 0a69.353 69.353 0 0 1 24.281 24.281l-57.438 33.156 33.157-57.437zm-95.188 25.5 57.469 33.156h-66.344c.12-12.057 3.327-23.337 8.875-33.156zm120.188 0c5.548 9.819 8.754 21.1 8.875 33.156h-66.344l57.469-33.156zm-246.625 34.594h55.625c.123 23.332 6.338 45.195 17.156 64.125l-48.188 27.812c-15.532-27.099-24.469-58.49-24.593-91.937zm57.031 0h59.125a70.008 70.008 0 0 0 9.063 33.844l-51.22 29.562c-10.696-18.723-16.845-40.324-16.968-63.406zm60.531 0h66.344l-57.469 33.156c-5.548-9.819-8.754-21.1-8.875-33.156zm71.594 0h66.344c-.12 12.057-3.327 23.337-8.875 33.156l-57.469-33.156zm67.75 0H479.5c-.123 23.082-6.272 44.683-16.969 63.406l-51.219-29.563a70.009 70.009 0 0 0 9.063-33.843zm60.531 0h55.625c-.124 33.448-9.061 64.838-24.593 91.937l-48.188-27.812c10.818-18.93 17.033-40.793 17.156-64.125zm-132.844 1.219-33.156 57.437a69.353 69.353 0 0 1-24.281-24.281l57.438-33.156zm3.875 0 57.438 33.156a69.353 69.353 0 0 1-24.281 24.281l-33.156-57.438zm-2.656.687v66.344c-12.057-.12-23.337-3.327-33.156-8.875l33.156-57.469zm1.438 0 33.156 57.469c-9.819 5.548-21.1 8.754-33.156 8.875v-66.344zm-61.281 33.188a70.462 70.462 0 0 0 24.75 24.75l-29.563 51.25a130.097 130.097 0 0 1-46.438-46.438l51.25-29.563zm121.125 0 51.25 29.562a130.097 130.097 0 0 1-46.438 46.438l-29.563-51.25a70.462 70.462 0 0 0 24.75-24.75zm-95.125 25.5a70.009 70.009 0 0 0 33.843 9.062V479.5c-23.082-.123-44.683-6.272-63.406-16.969l29.563-51.219zm69.125 0 29.562 51.218c-18.723 10.697-40.324 16.846-63.406 16.969v-59.125a70.008 70.008 0 0 0 33.844-9.063zM237 416.063A131.626 131.626 0 0 0 283.938 463l-27.813 48.188a187.244 187.244 0 0 1-67.313-67.313L237 416.062zm226 0 48.188 27.812a187.244 187.244 0 0 1-67.313 67.313L416.062 463A131.626 131.626 0 0 0 463 416.062zM285.156 463.75c18.93 10.818 40.793 17.033 64.125 17.156v55.625c-33.448-.124-64.838-9.061-91.937-24.593l27.812-48.188zm129.688 0 27.812 48.188c-27.099 15.532-58.49 24.469-91.937 24.593v-55.625c23.332-.123 45.195-6.338 64.125-17.156z" style="font-size:medium;font-style:normal;font-variant:normal;font-weight:400;font-stretch:normal;text-indent:0;text-align:start;text-decoration:none;line-height:normal;letter-spacing:normal;word-spacing:normal;text-transform:none;direction:ltr;block-progression:tb;writing-mode:lr-tb;text-anchor:start;baseline-shift:baseline;color:#000;fill:#fff;fill-opacity:1;stroke:none;stroke-width:1;marker:none;visibility:visible;display:inline;overflow:visible;enable-background:accumulate;font-family:Sans;-inkscape-font-specification:Sans"/><path d="M349.296 215.298v3.783h-.044l.088.352-1.056 1.056c.338-.004.674.002 1.012 0v59.124c-12.293.122-23.856 3.404-33.873 9.063l-6.995-12.098-.528 1.98 6.29 10.865a70.559 70.559 0 0 0-24.766 24.768l-19.357-11.174-1.935.44-.088.044 20.632 11.921c-5.659 10.018-8.941 21.58-9.063 33.874h-42.1l.176 1.408h41.924c.122 12.294 3.404 23.856 9.063 33.873l-28.947 16.717v1.628l29.695-17.113a70.559 70.559 0 0 0 24.767 24.767l-9.458 16.41 1.231.703 9.459-16.365c10.017 5.659 21.58 8.941 33.873 9.063v7.346l1.408.66v-8.006c12.294-.122 23.856-3.404 33.873-9.063l29.563 51.207a128.905 128.905 0 0 1-20.236 9.326l1.76.88a130.228 130.228 0 0 0 19.18-8.975l3.827 6.643 1.232-.748-3.828-6.642a131.635 131.635 0 0 0 46.94-46.94l15.66 9.019.573-1.32-15.486-8.93c10.818-18.93 17.034-40.808 17.157-64.14h18.96l-.44-1.408h-18.52c-.123-23.332-6.339-45.21-17.157-64.14l12.318-7.126v-.044l-.704-1.188-12.361 7.127a131.578 131.578 0 0 0-29.299-34.534l-1.32.66a130.184 130.184 0 0 1 29.43 34.577l-51.25 29.563a70.559 70.559 0 0 0-24.767-24.768l29.563-51.25a129.764 129.764 0 0 1 16.013 11.086l.176-1.628c-.564-.449-1.145-.88-1.716-1.32l-.176-.043v-.132a131.197 131.197 0 0 0-13.594-9.15l.396-.66-1.891.66-1.892-.309c.481.267.975.52 1.452.792l-29.563 51.207c-10.017-5.659-21.58-8.941-33.873-9.063V220.49c.412.002.82.037 1.232.044l-.264-1.452c-.324-.004-.644.002-.968 0v-3.783h-1.408zm33.962 8.05-1.76 1.012c1.557.39 3.085.83 4.62 1.276l-.177-1.54c-.89-.253-1.786-.513-2.683-.748zm3.431 2.42c2.236.66 4.459 1.38 6.643 2.155l-2.2-1.716-4.443-.44zm-179.75 40.824-.176 1.54 12.098 6.994-2.288-2.991-9.634-5.543zm18.389 12.274 10.91 6.29a130.241 130.241 0 0 0-8.359 17.553h1.496a129.03 129.03 0 0 1 8.094-16.849l.528.308-1.627-1.892-1.188-1.407-4.84-2.772-.263.396v-.352l-4.751-1.276zm123.968 2.155v66.34l-33.17-57.454a68.583 68.583 0 0 1 33.17-8.886zm1.408 0a68.583 68.583 0 0 1 33.17 8.886l-33.17 57.454v-66.34zm111.827 4.84c10.697 18.722 16.857 40.353 16.98 63.435h-59.124c-.122-12.294-3.404-23.856-9.063-33.873l51.207-29.563zm-147.636 4.75 33.17 57.453-57.454-33.17a69.366 69.366 0 0 1 24.284-24.283zm70.21 0a69.365 69.365 0 0 1 24.284 24.284l-57.453 33.17 33.17-57.454zm-134.79 2.684 7.918 4.575-.527-.66-.88-.748-2.508-1.276-4.003-1.891zm-23.184 11.438a129.065 129.065 0 0 0-2.155 6.334l.836.44-2.024 7.523.528-.264c1.186-4.784 2.61-9.476 4.311-14.033h-1.496zm62.776 11.393 57.453 33.17h-66.339a68.583 68.583 0 0 1 8.886-33.17zm120.186 0a68.583 68.583 0 0 1 8.886 33.17h-66.34l57.454-33.17zM281.02 350.704h66.34l-57.454 33.17a68.583 68.583 0 0 1-8.886-33.17zm71.618 0h66.34a68.583 68.583 0 0 1-8.886 33.17l-57.454-33.17zm67.748 0h59.124c-.123 23.082-6.283 44.713-16.98 63.436l-51.207-29.563c5.659-10.017 8.941-21.58 9.063-33.873zm-72.323 1.232-33.17 57.453a69.365 69.365 0 0 1-24.283-24.284l57.453-33.17zm3.872 0 57.453 33.17a69.365 69.365 0 0 1-24.284 24.283l-33.17-57.453zm-2.64.704v66.339a68.583 68.583 0 0 1-33.17-8.886l33.17-57.453zm1.408 0 33.17 57.453a68.583 68.583 0 0 1-33.17 8.886v-66.34zm59.873 33.17 51.25 29.562a130.195 130.195 0 0 1-46.455 46.455l-29.563-51.25a70.559 70.559 0 0 0 24.768-24.768z" style="font-size:medium;font-style:normal;font-variant:normal;font-weight:400;font-stretch:normal;text-indent:0;text-align:start;text-decoration:none;line-height:normal;letter-spacing:normal;word-spacing:normal;text-transform:none;direction:ltr;block-progression:tb;writing-mode:lr-tb;text-anchor:start;baseline-shift:baseline;color:#000;fill:#021e9b;fill-opacity:1;stroke:none;stroke-width:1;marker:none;visibility:visible;display:inline;overflow:visible;enable-background:accumulate;font-family:Sans;-inkscape-font-specification:Sans"/></svg>