<svg width="451.834" height="451.834" viewBox="0 0 119.548 119.548" xml:space="preserve" xmlns="http://www.w3.org/2000/svg"><path d="M151.447 92.638c.004 32.924-26.686 59.617-59.61 59.617-32.925 0-59.614-26.693-59.61-59.617-.004-32.925 26.685-59.617 59.61-59.617s59.614 26.692 59.61 59.617z" style="fill:#fff;fill-opacity:1;fill-rule:nonzero;stroke-width:1.05833;stroke-linecap:butt;stroke-miterlimit:2;stroke-dasharray:none;stroke-opacity:1" transform="translate(-32.226 -32.864)"/><path d="M151.594 92.638a59.61 59.61 0 1 1-119.22 0 59.61 59.61 0 1 1 119.22 0z" style="fill:#021e9b;fill-opacity:1;stroke:none;stroke-width:.460289" transform="translate(-32.226 -32.864)"/><path d="m96.788 59.087-.233-.1zm6.641 65.71-.896-.531-2.657.664-2.325-1.46v.563l-.564-.763.664-.663-.1-1.992h.764l.465-1.327.531-.232-.431-.665.664-.232-.1-.995-.664-.332.863-.1-.53-2.422-1.329-1.328-.797.332.332 1.096h-2.757l-2.324-.996-.897-.432-4.417-.995-.332.53-1.561.133H84.6l-.665 1.096-1.893-1.328-.996.332.133.896-2.458-1.327-.1.862-2.424-1.095-.132.1-1.196.464-.232-.896-2.89-1.427-3.088-.995-.565-2.556v-.564l-1.195-2.19.53-2.655-.995-.332-.332-1.128 1.66-.2h-.764l.1-1.659-2.425.764-.099-.664-.332 1.228-1.329.53-.896-.862-.332-.896-.332-1.76.764-.563.332.43.232-.53-.564-3.982.896.199.432-4.182.133-.133.863-.53-1.096.1-.432-.997 1.993-2.223-1.793-.332-1.329 1.328-.531-1.527-.797 1.095-.2-.763-.996.332-.664.331.532-1.99-.432-.233.232-.564-.564.133-.1-1.129h2.092l-.1-.53h-.663l-1.23-2.125-.663.233-.432-.764-.233.664-.664-.465.664-.43-.996-.333.233-.564-.798-.431-.199-1.76-.797-.232.465-.332-.897-2.323.1-.763.332-2.323h.664l-.199 1.427 1.66 2.323 1.196 1.56 2.458.664v.1l.332-.565 1.328 1.56.664.763.332.332 3.753 1.792.664.332.233.199 1.76 2.124.996-.465 7.306-1.659.233-1.327.531.232-.1-.431.333-.233 1.56-.564v-1.527l.532-.564.664-2.555-.332-.996 1.561-3.75v-2.323h.764l.896-1.327 1.096-.333.133-1.227 1.528-1.859.664.332 3.122-1.128.332-.332.664-.664-.233-1.095h.665l.332 1.759 3.42.796.565-.564.233.1 2.988.664.1-.1 1.561-.896.1.996 1.328.132 1.096.863.232.232 1.66 1.427 1.993.133 1.23.2 1.527-.532.133.996.664.431.531-.995h.664l.465 2.555.532.1-.1.896-.1.1h.2l1.328-.664 1.229-.432 3.42 1.195.664-.2.233 1.196.897.132-.233-.564h.764l.232 1.228.897-.996 2.092 1.328.565 2.422-.897.233.233 1.858.332.564 2.325 5.875-1.23 1.095-.099 1.327-.996 1.228 1.096.763-.432.332.996.996 1.528.232.465.664.432.862 1.095.465 1.329-.896.897.1-1.096 1.56 1.096 2.887-1.329 1.095.565 1.759-.332 1.56.664.896 1.76.332-1.76 2.422.332.432.432.464-.764 1.195.764.465-3.886 3.186.897 2.223-.233 1.328-1.328.431-.332 1.128-1.528.664-.465 1.427-.332.764 1.561.796-2.325.2.565 1.227-1.13 1.095-1.76.332-.564.996 1.328.663-2.524 2.323.764 1.228-1.992-.43-2.225 1.327-2.99 1.426-.663.996-.432-.332.432-.995-1.993.763-.432-.763-2.989 1.759-1.328-.432-2.424.432-.664-.332m.1-64.15-.233-.233h-.1v.133h.232zm-.765 63.818.664.332zm0 0 .664.332m-47.29-45.997.133-.797-1.229-.763zm-2.657-6.107h-.664l.332.996.332-.863zm-.332-.995-.332.332.664.464-.332-.796zm2.989 7.102.133-.797-1.229-.763zm-2.657-6.107h-.664l.332.996.332-.863zm-.332-.995-.332.332.664.464-.332-.796zm2.989 7.102.133-.797-1.229-.763zm-2.657-6.107h-.664l.332.996.332-.863zm-.332-.995-.332.332.664.464-.332-.796zm1.992-2.323v-.863l-.763.199.1.564zm-.863-2.423.2.431.464-.995-.664.464zm.863 2.423v-.863l-.763.199.1.564zm-.863-2.423.2.431.464-.995-.664.464zm.863 2.423v-.863l-.763.199.1.564zm-.863-2.423.2.431.464-.995-.664.464zm11.823 33.85-.764.1-.664.896 1.096-.232.332-.763zm0 0-.764.1-.664.896 1.096-.232.332-.763zm0 0-.764.1-.664.896 1.096-.232.332-.763zm.797-22.467-.233-.2-.664-.33.664.33z" style="fill:#fff;stroke-width:.264583" transform="translate(-32.226 -32.864)"/><path d="M92.174 33.082a59.61 59.61 0 0 0-.38.008v9.822a49.453 49.453 0 0 0-24.507 6.566l-4.903-8.492a59.61 59.61 0 0 0-.331.19l4.903 8.492A49.955 49.955 0 0 0 49.014 67.61l-8.508-4.911a59.61 59.61 0 0 0-.198.322l8.516 4.92a49.456 49.456 0 0 0-6.565 24.506h-9.88a59.61 59.61 0 0 0-.009.19 59.61 59.61 0 0 0 .008.19h9.881a49.453 49.453 0 0 0 6.565 24.508l-8.516 4.92a59.61 59.61 0 0 0 .174.33l8.532-4.92a49.955 49.955 0 0 0 17.942 17.943l-4.936 8.55a59.61 59.61 0 0 0 .339.173l4.928-8.533a49.456 49.456 0 0 0 24.507 6.565v9.831a59.61 59.61 0 0 0 .38-.008v-9.823a49.453 49.453 0 0 0 24.507-6.565l4.903 8.492a59.61 59.61 0 0 0 .331-.19l-4.903-8.492a49.955 49.955 0 0 0 17.942-17.942l8.508 4.911a59.61 59.61 0 0 0 .199-.322l-8.517-4.92a49.456 49.456 0 0 0 6.565-24.507h9.88a59.61 59.61 0 0 0 .009-.19 59.61 59.61 0 0 0-.008-.19h-9.88a49.453 49.453 0 0 0-6.566-24.507l8.517-4.92a59.61 59.61 0 0 0-.174-.33l-8.533 4.92a49.955 49.955 0 0 0-17.942-17.943l4.936-8.55a59.61 59.61 0 0 0-.339-.173l-4.928 8.533a49.456 49.456 0 0 0-24.507-6.565v-9.831zm-.38 10.203v14.717a34.443 34.443 0 0 0-16.967 4.54l-7.358-12.75a49.145 49.145 0 0 1 24.325-6.507zm.38 0a49.142 49.142 0 0 1 24.325 6.507l-7.358 12.75a34.443 34.443 0 0 0-16.967-4.54zM67.146 49.99l7.36 12.75a34.826 34.826 0 0 0-12.42 12.419l-12.75-7.36a49.542 49.542 0 0 1 17.81-17.809zm49.676 0a49.542 49.542 0 0 1 17.81 17.81l-12.75 7.359a34.826 34.826 0 0 0-12.42-12.42l7.36-12.749zm-25.028 8.384v15.644a18.523 18.523 0 0 0-8.955 2.398l-7.821-13.552a34.058 34.058 0 0 1 16.776-4.49zm.38 0a34.056 34.056 0 0 1 16.776 4.49l-7.821 13.552a18.523 18.523 0 0 0-8.955-2.398zm-17.487 4.68 7.822 13.56a18.643 18.643 0 0 0-6.549 6.548L62.4 75.341a34.421 34.421 0 0 1 12.287-12.287zm34.594 0a34.421 34.421 0 0 1 12.287 12.287l-13.56 7.821a18.643 18.643 0 0 0-6.548-6.548zm-60.143 5.068 12.75 7.36a34.443 34.443 0 0 0-4.54 16.965H42.631a49.142 49.142 0 0 1 6.507-24.325zm85.692 0a49.142 49.142 0 0 1 6.507 24.325H126.62a34.442 34.442 0 0 0-4.54-16.966l12.75-7.359zM91.794 74.39v17.554L83.02 76.738a18.134 18.134 0 0 1 8.773-2.349zm.38 0c3.19.032 6.175.88 8.773 2.349l-8.773 15.205zM62.21 75.671l13.552 7.822a18.523 18.523 0 0 0-2.398 8.954H57.72a34.056 34.056 0 0 1 4.49-16.776zm59.548 0a34.056 34.056 0 0 1 4.49 16.776h-15.644a18.523 18.523 0 0 0-2.398-8.954l13.552-7.822zm-39.06 1.257 8.773 15.197-15.197-8.773a18.35 18.35 0 0 1 6.425-6.424zm18.571 0a18.35 18.35 0 0 1 6.425 6.424l-15.197 8.773zm-25.185 6.747 15.205 8.772H73.736a18.13 18.13 0 0 1 2.348-8.772zm31.8 0a18.134 18.134 0 0 1 2.348 8.772H92.68zM42.63 92.828h14.717a34.443 34.443 0 0 0 4.54 16.966l-12.75 7.359a49.145 49.145 0 0 1-6.507-24.325zm15.09 0h15.643a18.523 18.523 0 0 0 2.398 8.954l-13.552 7.822a34.058 34.058 0 0 1-4.49-16.776zm16.015 0h17.553L76.084 101.6a18.134 18.134 0 0 1-2.348-8.772zm18.943 0h17.553a18.13 18.13 0 0 1-2.348 8.772zm17.925 0h15.644a34.055 34.055 0 0 1-4.49 16.776l-13.552-7.822a18.523 18.523 0 0 0 2.398-8.954zm16.016 0h14.717a49.144 49.144 0 0 1-6.507 24.325l-12.75-7.359a34.443 34.443 0 0 0 4.54-16.966zm-35.149.322L82.7 108.347a18.35 18.35 0 0 1-6.425-6.424l15.198-8.773zm1.026 0 15.197 8.773a18.35 18.35 0 0 1-6.425 6.424L92.497 93.15zm-.703.182v17.553a18.13 18.13 0 0 1-8.773-2.348zm.38 0 8.773 15.205a18.134 18.134 0 0 1-8.773 2.348zm-16.214 8.781a18.643 18.643 0 0 0 6.549 6.548l-7.822 13.56A34.421 34.421 0 0 1 62.4 109.935l13.56-7.822zm32.048 0 13.56 7.822a34.421 34.421 0 0 1-12.287 12.286l-7.822-13.56a18.643 18.643 0 0 0 6.549-6.548zm-25.169 6.747a18.523 18.523 0 0 0 8.955 2.397v15.644a34.055 34.055 0 0 1-16.776-4.49zm18.29 0 7.821 13.551a34.056 34.056 0 0 1-16.776 4.49v-15.644a18.523 18.523 0 0 0 8.955-2.397zm-39.043 1.257a34.826 34.826 0 0 0 12.42 12.419l-7.36 12.75a49.542 49.542 0 0 1-17.81-17.81l12.75-7.36zm59.796 0 12.75 7.358a49.542 49.542 0 0 1-17.81 17.81l-7.36-12.75a34.826 34.826 0 0 0 12.42-12.418zm-47.055 12.617a34.443 34.443 0 0 0 16.967 4.54v14.717a49.144 49.144 0 0 1-24.325-6.507zm34.314 0 7.358 12.75a49.145 49.145 0 0 1-24.325 6.507v-14.718a34.443 34.443 0 0 0 16.967-4.539z" style="color:#000;font-style:normal;font-variant:normal;font-weight:400;font-stretch:normal;font-size:medium;line-height:normal;font-family:Sans;-inkscape-font-specification:Sans;text-indent:0;text-align:start;text-decoration:none;text-decoration-line:none;letter-spacing:normal;word-spacing:normal;text-transform:none;writing-mode:lr-tb;direction:ltr;baseline-shift:baseline;text-anchor:start;display:inline;overflow:visible;visibility:visible;fill:#fff;fill-opacity:1;stroke:none;stroke-width:.264583;marker:none;enable-background:accumulate" transform="translate(-32.226 -32.864)"/><path d="M91.798 56.998v1h-.012l.023.094-.279.28c.09-.002.178 0 .268 0v15.642c-3.253.033-6.312.901-8.962 2.398l-1.851-3.2-.14.523 1.664 2.875a18.669 18.669 0 0 0-6.552 6.553l-5.122-2.956-.512.116-.023.012 5.459 3.154a18.555 18.555 0 0 0-2.398 8.962H62.22l.047.373h11.093c.032 3.253.9 6.312 2.398 8.962l-7.66 4.423v.431l7.858-4.528a18.669 18.669 0 0 0 6.553 6.553l-2.503 4.342.326.186 2.503-4.33a18.554 18.554 0 0 0 8.962 2.398v1.944l.372.174v-2.118c3.253-.032 6.312-.9 8.963-2.398l7.821 13.549a34.106 34.106 0 0 1-5.354 2.467l.466.233a34.456 34.456 0 0 0 5.075-2.375l1.012 1.758.326-.198-1.013-1.757a34.828 34.828 0 0 0 12.42-12.42l4.143 2.386.152-.349-4.097-2.363a34.458 34.458 0 0 0 4.539-16.97h5.017l-.117-.373h-4.9a34.457 34.457 0 0 0-4.54-16.97l3.26-1.885v-.012l-.187-.314-3.27 1.885a34.813 34.813 0 0 0-7.752-9.137l-.35.175a34.445 34.445 0 0 1 7.787 9.148l-13.56 7.822a18.669 18.669 0 0 0-6.553-6.553l7.822-13.56a34.333 34.333 0 0 1 4.237 2.933l.047-.43c-.15-.12-.303-.233-.454-.35l-.047-.011v-.035a34.713 34.713 0 0 0-3.597-2.42l.105-.176-.5.175-.5-.082c.126.07.257.138.383.21l-7.821 13.548a18.554 18.554 0 0 0-8.963-2.398V58.371c.11.001.217.01.326.012l-.07-.384h-.256v-1.001h-.372zm8.986 2.13-.466.267c.412.104.816.22 1.222.338l-.047-.407c-.235-.067-.472-.136-.71-.198zm.907.64c.592.175 1.18.365 1.758.57l-.582-.454-1.176-.116zM54.132 70.569l-.046.408 3.2 1.85-.605-.791zm4.866 3.248 2.887 1.664a34.46 34.46 0 0 0-2.212 4.644h.396a34.14 34.14 0 0 1 2.141-4.458l.14.082-.43-.5-.315-.373-1.28-.733-.07.104v-.093l-1.257-.337zm32.8.57v17.552l-8.776-15.2a18.146 18.146 0 0 1 8.776-2.352zm.372 0a18.146 18.146 0 0 1 8.777 2.351L92.17 91.94zm29.588 1.28a34.086 34.086 0 0 1 4.492 16.784h-15.643a18.553 18.553 0 0 0-2.398-8.962l13.549-7.822zm-39.062 1.257 8.776 15.201-15.201-8.776a18.353 18.353 0 0 1 6.425-6.425zm18.576 0a18.353 18.353 0 0 1 6.425 6.426l-15.2 8.776 8.775-15.202zm-35.663.71 2.095 1.211-.14-.175-.232-.198-.664-.337zm-6.134 3.027a34.148 34.148 0 0 0-.57 1.676l.221.116-.536 1.99.14-.07c.314-1.265.69-2.506 1.14-3.712zm16.61 3.014 15.2 8.776H73.734a18.146 18.146 0 0 1 2.351-8.776zm31.799 0a18.146 18.146 0 0 1 2.35 8.776H92.683zm-34.15 9.149h17.552L76.084 101.6a18.146 18.146 0 0 1-2.35-8.776zm18.948 0h17.552a18.146 18.146 0 0 1-2.35 8.776zm17.925 0h15.643a34.089 34.089 0 0 1-4.492 16.784l-13.549-7.822a18.554 18.554 0 0 0 2.398-8.962zm-19.135.326-8.777 15.201a18.353 18.353 0 0 1-6.425-6.425l15.202-8.776zm1.024 0 15.201 8.776a18.353 18.353 0 0 1-6.425 6.425L92.496 93.15zm-.699.186v17.552a18.146 18.146 0 0 1-8.776-2.35zm.373 0 8.776 15.201a18.146 18.146 0 0 1-8.776 2.351V93.336zm15.841 8.776 13.56 7.822a34.447 34.447 0 0 1-12.29 12.291l-7.823-13.56a18.669 18.669 0 0 0 6.553-6.553z" style="color:#000;font-style:normal;font-variant:normal;font-weight:400;font-stretch:normal;font-size:medium;line-height:normal;font-family:Sans;-inkscape-font-specification:Sans;text-indent:0;text-align:start;text-decoration:none;text-decoration-line:none;letter-spacing:normal;word-spacing:normal;text-transform:none;writing-mode:lr-tb;direction:ltr;baseline-shift:baseline;text-anchor:start;display:inline;overflow:visible;visibility:visible;fill:#021e9b;fill-opacity:1;stroke:none;stroke-width:.264583;marker:none;enable-background:accumulate" transform="translate(-32.226 -32.864)"/></svg>